<?xml version="1.0" standalone="no"?>
<!DOCTYPE svg PUBLIC "-//W3C//DTD SVG 20010904//EN"
 "http://www.w3.org/TR/2001/REC-SVG-20010904/DTD/svg10.dtd">
<svg version="1.0" xmlns="http://www.w3.org/2000/svg"
 width="1452.000000pt" height="636.000000pt" viewBox="0 0 1452.000000 636.000000"
 preserveAspectRatio="xMidYMid meet">

<g transform="translate(0.000000,636.000000) scale(0.100000,-0.100000)"
fill="#000000" stroke="none">
<path d="M2640 5751 l0 -598 -172 -7 c-95 -4 -177 -11 -182 -16 -6 -6 -25 -10
-43 -10 -18 0 -33 -4 -33 -10 0 -5 -22 -10 -49 -10 -28 0 -53 -4 -56 -10 -3
-5 -22 -10 -41 -10 -19 0 -34 -4 -34 -10 0 -5 -15 -10 -32 -10 -18 0 -46 -7
-62 -15 -15 -8 -41 -15 -57 -15 -16 0 -29 -4 -29 -10 0 -5 -11 -10 -25 -10
-14 0 -25 -4 -25 -10 0 -5 -9 -10 -20 -10 -11 0 -20 -4 -20 -10 0 -5 -11 -10
-24 -10 -14 0 -27 -4 -30 -9 -3 -4 -24 -11 -46 -15 -22 -3 -40 -11 -40 -16 0
-6 -9 -10 -20 -10 -11 0 -20 -4 -20 -10 0 -5 -7 -10 -15 -10 -8 0 -15 -4 -15
-10 0 -5 -9 -10 -19 -10 -11 0 -23 -5 -26 -10 -4 -6 -11 -8 -16 -5 -5 4 -9 1
-9 -4 0 -6 -9 -11 -20 -11 -11 0 -20 -4 -20 -10 0 -5 -9 -10 -20 -10 -11 0
-20 -3 -20 -8 0 -4 -19 -16 -41 -27 -67 -32 -79 -39 -79 -47 0 -5 -8 -8 -18
-8 -10 0 -24 -9 -32 -20 -8 -11 -20 -20 -27 -20 -7 0 -23 -11 -37 -25 -14 -14
-29 -25 -33 -25 -5 0 -15 -9 -23 -20 -8 -11 -22 -20 -31 -20 -9 0 -30 -16 -46
-35 -17 -19 -35 -35 -42 -35 -13 0 -312 -296 -305 -303 3 -2 -12 -21 -33 -42
-35 -35 -52 -58 -69 -95 -4 -8 -16 -22 -26 -31 -10 -9 -18 -24 -18 -33 0 -9
-4 -16 -9 -16 -5 0 -13 -10 -17 -22 -4 -13 -15 -30 -25 -39 -11 -9 -19 -24
-19 -33 0 -9 -4 -16 -8 -16 -5 0 -15 -16 -22 -35 -8 -20 -20 -41 -27 -47 -7
-6 -13 -21 -13 -33 0 -13 -3 -25 -7 -27 -14 -5 -52 -87 -59 -123 -3 -19 -10
-35 -15 -35 -5 0 -9 -13 -9 -30 0 -16 -4 -30 -10 -30 -5 0 -10 -7 -10 -15 0
-8 -4 -15 -10 -15 -5 0 -10 -14 -10 -30 0 -17 -4 -38 -10 -48 -5 -9 -12 -43
-15 -74 -4 -32 -11 -60 -16 -63 -5 -4 -9 -37 -9 -76 0 -39 -4 -69 -10 -69 -5
0 -10 -25 -10 -55 0 -30 -4 -55 -10 -55 -6 0 -10 -39 -10 -98 0 -84 3 -101 20
-120 11 -12 20 -24 20 -27 0 -11 45 -55 57 -55 7 0 13 -4 13 -10 0 -6 33 -10
80 -10 47 0 80 4 80 10 0 6 30 10 70 10 40 0 70 4 70 10 0 6 16 10 35 10 19 0
35 5 35 10 0 6 20 10 44 10 25 0 47 4 50 9 4 5 44 12 91 16 47 4 85 11 85 16
0 5 20 9 45 9 25 0 45 5 45 10 0 6 25 10 55 10 30 0 55 5 55 10 0 6 25 10 55
10 30 0 55 4 55 9 0 5 35 12 78 16 42 3 85 10 94 15 10 6 47 10 83 10 37 0 65
4 65 10 0 6 30 10 69 10 39 0 73 5 76 10 3 6 37 10 74 10 37 0 71 4 77 10 5 5
89 13 187 16 97 4 177 11 177 16 0 11 917 11 924 0 3 -5 98 -12 212 -15 125
-3 211 -10 217 -16 7 -7 54 -11 114 -11 62 0 103 -4 103 -10 0 -5 25 -10 55
-10 30 0 55 -4 55 -10 0 -5 25 -10 55 -10 30 0 55 -4 55 -9 0 -4 55 -11 123
-15 67 -4 124 -12 125 -17 2 -5 24 -9 48 -9 24 0 44 -4 44 -10 0 -5 20 -10 45
-10 25 0 45 -4 45 -10 0 -5 25 -10 55 -10 30 0 55 -4 55 -9 0 -5 32 -12 70
-16 39 -4 70 -11 70 -16 0 -5 20 -9 45 -9 25 0 45 -4 45 -10 0 -5 20 -10 45
-10 25 0 45 -4 45 -10 0 -6 30 -10 69 -10 39 0 73 -4 76 -10 3 -5 46 -10 94
-10 75 0 91 3 106 20 10 11 24 20 32 20 7 0 13 8 13 18 0 9 9 23 20 30 19 11
20 23 20 191 0 109 -4 182 -10 186 -5 3 -10 22 -10 41 0 19 -4 34 -10 34 -5 0
-10 25 -10 55 0 30 -4 55 -10 55 -5 0 -10 16 -10 35 0 19 -4 35 -10 35 -5 0
-10 11 -10 24 0 14 -5 28 -11 32 -6 3 -9 15 -6 25 3 11 1 19 -4 19 -5 0 -9 14
-9 30 0 17 -4 30 -10 30 -5 0 -10 9 -10 20 0 11 -4 20 -9 20 -5 0 -11 18 -15
40 -3 22 -11 40 -16 40 -6 0 -10 9 -10 20 0 11 -4 20 -8 20 -5 0 -14 16 -22
35 -8 19 -17 35 -22 35 -4 0 -8 9 -8 20 0 11 -4 20 -9 20 -5 0 -12 11 -15 25
-4 14 -11 25 -16 25 -6 0 -10 9 -10 20 0 11 -4 20 -10 20 -5 0 -10 6 -10 14 0
7 -7 20 -16 27 -9 7 -20 22 -25 34 -13 29 -31 56 -56 82 -13 13 -23 29 -23 34
0 6 -18 28 -40 49 -22 21 -40 43 -40 49 0 15 -240 252 -249 247 -5 -3 -29 17
-53 44 -25 28 -50 50 -56 50 -6 0 -22 11 -36 25 -14 14 -32 25 -39 25 -8 0
-17 7 -21 15 -3 8 -16 20 -28 25 -33 14 -60 32 -79 53 -9 9 -23 17 -32 17 -8
0 -17 7 -21 15 -3 8 -15 15 -26 15 -11 0 -20 4 -20 8 0 5 -16 14 -35 22 -19 8
-35 17 -35 22 0 4 -9 8 -20 8 -11 0 -20 5 -20 10 0 6 -6 10 -12 9 -20 -2 -58
12 -58 22 0 5 -9 9 -20 9 -11 0 -20 3 -20 8 0 9 -45 28 -87 37 -18 4 -33 11
-33 16 0 5 -11 9 -24 9 -14 0 -28 5 -31 10 -3 6 -17 10 -31 10 -13 0 -24 5
-24 10 0 6 -9 10 -20 10 -11 0 -20 5 -20 10 0 6 -15 10 -34 10 -19 0 -36 5
-38 11 -2 6 -25 13 -51 16 -26 3 -50 10 -53 14 -3 5 -27 9 -55 9 -27 0 -49 5
-49 10 0 6 -9 10 -20 10 -11 0 -20 5 -20 10 0 6 -25 10 -55 10 -30 0 -55 5
-55 10 0 6 -24 10 -53 10 -30 0 -102 3 -160 7 l-107 6 0 139 c0 131 1 138 20
138 11 0 20 5 20 10 0 6 11 10 24 10 14 0 28 4 31 10 3 5 28 12 55 16 28 4 50
9 50 13 0 10 52 30 98 37 23 4 42 10 42 15 0 5 11 9 25 9 14 0 25 5 25 10 0 6
14 10 30 10 17 0 30 5 30 10 0 6 9 10 20 10 11 0 20 5 20 10 0 6 11 10 25 10
14 0 25 4 25 9 0 5 19 11 43 15 48 8 97 27 97 38 0 5 14 8 30 8 17 0 30 5 30
10 0 6 11 10 25 10 14 0 25 4 25 9 0 5 24 12 53 16 28 4 54 10 57 14 12 15 52
31 80 31 16 0 30 3 30 8 0 11 52 32 97 39 47 8 78 33 39 33 -14 0 -28 5 -31
10 -3 6 -17 10 -31 10 -13 0 -24 5 -24 10 0 6 -9 10 -20 10 -11 0 -20 4 -20 9
0 5 -22 12 -50 16 -27 4 -50 11 -50 16 0 5 -13 9 -30 9 -16 0 -30 5 -30 10 0
6 -11 10 -25 10 -14 0 -25 5 -25 10 0 6 -9 10 -20 10 -11 0 -20 5 -20 10 0 6
-10 10 -22 10 -13 0 -36 7 -52 15 -15 8 -41 15 -57 15 -16 0 -29 5 -29 10 0 6
-8 10 -18 10 -22 0 -72 22 -72 33 0 4 -11 7 -24 7 -14 0 -27 4 -30 9 -4 5 -29
12 -56 16 -28 4 -50 11 -50 16 0 5 -9 9 -20 9 -11 0 -20 4 -20 9 0 5 -23 12
-51 16 -28 4 -53 13 -55 20 -3 7 -28 16 -55 20 -27 4 -49 11 -49 16 0 5 -9 9
-20 9 -11 0 -20 5 -20 10 0 6 -11 10 -24 10 -14 0 -27 4 -30 9 -4 5 -29 12
-56 16 -28 4 -50 10 -50 13 0 10 -51 32 -71 32 -10 0 -19 4 -21 8 -1 5 -18 12
-35 15 l-33 7 0 -599z m360 -941 c0 -6 30 -10 69 -10 39 0 73 -4 76 -10 3 -5
28 -10 55 -10 27 0 52 -5 56 -11 3 -6 20 -9 36 -7 16 3 31 1 34 -4 3 -4 18 -8
34 -8 16 0 32 -4 35 -10 3 -5 17 -10 31 -10 13 0 24 -4 24 -10 0 -5 16 -10 35
-10 19 0 35 -4 35 -10 0 -5 14 -10 30 -10 17 0 30 -4 30 -9 0 -5 23 -12 50
-16 28 -4 50 -11 50 -16 0 -5 9 -9 20 -9 11 0 20 -4 20 -10 0 -5 9 -10 20 -10
11 0 20 -4 20 -10 0 -5 7 -10 15 -10 8 0 15 -4 15 -10 0 -5 14 -10 30 -10 18
0 33 -6 36 -15 4 -8 15 -15 25 -15 10 0 19 -4 19 -10 0 -5 9 -10 20 -10 11 0
20 -4 20 -10 0 -5 7 -10 15 -10 8 0 15 -4 15 -10 0 -5 9 -10 20 -10 11 0 20
-4 20 -9 0 -5 10 -13 23 -17 12 -4 29 -14 37 -24 8 -9 26 -20 40 -23 14 -4 39
-20 57 -37 18 -16 35 -30 38 -30 4 0 12 -6 19 -12 27 -26 66 -58 71 -58 11 0
255 -248 255 -259 0 -5 11 -21 25 -35 14 -14 25 -28 25 -31 0 -3 13 -19 30
-36 16 -18 28 -35 25 -38 -2 -4 5 -14 16 -21 10 -8 19 -21 19 -29 0 -7 8 -21
18 -30 15 -13 29 -37 37 -61 8 -27 41 -90 47 -90 5 0 8 -9 8 -20 0 -11 4 -20
10 -20 5 0 12 -16 16 -35 3 -19 10 -35 15 -35 5 0 9 -11 9 -25 0 -14 5 -25 10
-25 6 0 10 -13 10 -30 0 -16 5 -30 10 -30 6 0 10 -11 10 -24 0 -13 5 -26 10
-28 6 -2 13 -33 17 -71 3 -37 10 -67 14 -67 5 0 9 -15 9 -34 0 -19 5 -38 10
-41 6 -3 10 -22 10 -41 0 -31 -3 -34 -29 -34 -16 0 -31 4 -33 10 -1 5 -42 13
-90 16 -49 4 -88 11 -88 15 0 5 -20 9 -45 9 -25 0 -45 5 -45 10 0 6 -20 10
-44 10 -24 0 -46 4 -48 10 -1 5 -45 13 -96 16 -51 4 -95 11 -98 16 -3 4 -16 8
-30 8 -13 0 -24 5 -24 10 0 6 -30 10 -69 10 -39 0 -73 5 -76 10 -3 6 -24 10
-46 10 -21 0 -39 5 -39 10 0 6 -28 10 -64 10 -35 0 -66 4 -68 9 -1 5 -83 13
-180 17 -98 4 -178 11 -178 15 0 5 -16 9 -35 9 -19 0 -35 5 -35 10 0 6 -60 10
-159 10 -96 0 -162 4 -166 10 -4 6 -177 10 -486 10 -313 0 -479 -3 -479 -10 0
-6 -33 -10 -80 -10 -47 0 -80 -4 -80 -10 0 -6 -40 -10 -100 -10 -55 0 -100 -4
-100 -9 0 -5 -63 -12 -140 -16 -77 -4 -140 -11 -140 -16 0 -5 -34 -9 -75 -9
-43 0 -75 -4 -75 -10 0 -5 -25 -10 -55 -10 -30 0 -55 -4 -55 -10 0 -5 -16 -10
-35 -10 -19 0 -35 -4 -35 -10 0 -5 -22 -10 -48 -10 -26 0 -52 -4 -57 -9 -6 -6
-61 -13 -122 -17 -62 -4 -113 -11 -113 -15 0 -5 -11 -9 -24 -9 -14 0 -28 -4
-31 -10 -3 -5 -28 -10 -56 -10 -27 0 -49 -4 -49 -10 0 -5 -20 -10 -43 -10 -24
0 -46 -3 -50 -6 -3 -4 -29 -7 -57 -8 -48 -1 -50 0 -50 26 0 15 4 29 9 32 4 3
11 40 15 83 6 75 23 133 38 133 5 0 8 15 8 34 0 19 4 37 9 40 5 3 7 15 4 26
-3 12 1 22 11 26 8 3 18 21 22 40 3 19 10 34 15 34 5 0 9 11 9 25 0 14 5 25
10 25 6 0 10 9 10 20 0 11 4 20 9 20 5 0 13 15 17 32 3 18 15 39 25 46 11 7
19 18 19 24 0 6 8 18 18 27 11 9 22 29 26 45 4 16 20 41 37 57 16 15 29 33 29
41 0 7 9 19 20 26 12 7 24 21 28 32 10 27 280 300 297 300 7 0 22 11 33 25 11
14 26 25 33 25 7 0 24 13 38 29 14 15 36 32 49 35 12 4 22 12 22 17 0 5 6 9
14 9 7 0 19 7 26 15 7 8 21 15 31 15 11 0 19 5 19 10 0 6 6 10 13 10 7 0 19 9
27 20 8 11 22 20 32 20 10 0 18 5 18 10 0 6 9 10 20 10 11 0 20 4 20 10 0 5
18 13 40 16 22 4 40 10 40 15 0 5 9 9 20 9 11 0 20 5 20 10 0 6 9 10 20 10 11
0 20 3 20 8 0 12 78 42 110 42 17 0 30 5 30 10 0 6 11 10 24 10 14 0 28 5 31
10 3 6 17 10 31 10 13 0 24 5 24 10 0 6 15 10 34 10 19 0 38 5 41 10 3 6 19
10 35 10 16 0 31 4 34 8 3 5 19 7 36 4 18 -2 30 0 30 7 0 7 21 11 55 11 30 0
55 5 55 10 0 6 30 10 69 10 39 0 73 5 76 10 4 6 100 10 256 10 159 0 249 -4
249 -10z"/>
<path d="M7630 4741 c0 -4 -25 -11 -55 -15 -30 -3 -65 -10 -77 -15 -13 -5 -41
-14 -63 -21 -67 -20 -154 -66 -168 -87 -4 -7 -13 -13 -19 -13 -16 0 -148 -112
-148 -126 0 -3 -16 -25 -35 -48 -19 -24 -35 -46 -35 -50 0 -5 -9 -19 -20 -33
-11 -14 -20 -36 -20 -49 0 -13 -5 -24 -11 -24 -5 0 -8 -4 -4 -9 3 -5 -6 -31
-20 -57 -14 -26 -28 -72 -32 -101 -3 -29 -10 -56 -14 -59 -12 -7 -12 -304 0
-304 4 0 11 -21 14 -46 2 -26 10 -50 17 -54 7 -4 10 -15 7 -24 -4 -9 -2 -16 3
-16 6 0 10 -9 10 -19 0 -11 5 -23 10 -26 6 -3 10 -13 10 -22 0 -16 46 -114 58
-123 4 -3 14 -18 21 -33 19 -37 184 -195 216 -207 14 -5 25 -14 25 -19 0 -5
14 -12 30 -16 17 -4 30 -10 30 -15 0 -5 25 -14 55 -20 30 -6 57 -15 60 -20 3
-5 28 -12 56 -16 27 -4 52 -11 55 -15 7 -12 361 -12 368 0 3 5 26 12 51 15 24
4 47 11 50 17 4 5 16 9 28 9 38 0 237 111 237 132 0 4 6 8 13 8 16 0 77 61 77
77 0 7 6 16 14 20 17 9 66 79 66 93 0 6 4 10 9 10 5 0 19 21 31 48 12 26 26
54 31 62 13 22 15 28 29 100 6 36 16 67 21 68 12 5 12 359 0 366 -5 3 -11 23
-15 43 -13 89 -19 113 -26 113 -5 0 -11 14 -15 30 -4 17 -10 30 -15 30 -5 0
-11 13 -15 29 -3 17 -22 50 -41 75 -19 25 -34 48 -34 51 0 4 -27 34 -60 68
-55 55 -79 74 -120 93 -8 4 -19 13 -23 21 -4 7 -15 13 -22 13 -8 0 -15 4 -15
9 0 5 -12 12 -27 16 -15 3 -30 10 -33 15 -3 5 -28 14 -55 21 -28 6 -58 15 -67
20 -10 5 -42 12 -73 15 -31 4 -58 11 -61 15 -7 12 -264 12 -264 0z m308 -358
c2 -7 13 -13 24 -13 39 0 178 -96 178 -122 0 -5 10 -19 23 -31 25 -25 77 -124
77 -147 0 -9 6 -22 13 -28 16 -17 17 -309 1 -320 -6 -4 -15 -22 -19 -39 -3
-18 -11 -33 -16 -33 -5 0 -8 -3 -7 -7 6 -31 -127 -193 -158 -193 -8 0 -17 -6
-20 -14 -3 -8 -20 -18 -37 -22 -18 -4 -42 -13 -54 -21 -47 -31 -368 -25 -388
7 -3 5 -18 15 -33 23 -52 26 -76 42 -106 72 -34 34 -96 120 -96 134 0 4 -7 14
-15 21 -9 7 -14 19 -11 26 3 7 0 14 -7 17 -17 5 -17 359 0 364 7 2 9 11 6 18
-8 22 48 129 80 153 9 7 17 20 17 28 0 8 8 17 18 21 9 4 32 19 50 35 18 15 39
28 47 28 8 0 15 4 15 9 0 5 15 13 33 16 17 4 37 11 42 15 20 16 53 19 194 17
105 -2 145 -5 149 -14z"/>
<path d="M10380 3900 l0 -850 168 0 167 0 -3 442 c-2 242 1 445 6 450 5 5 36
-21 71 -59 34 -38 89 -95 122 -128 32 -33 59 -64 59 -70 0 -5 22 -32 49 -60
104 -105 191 -202 191 -211 0 -5 25 -32 55 -59 30 -28 55 -54 55 -59 0 -5 32
-44 71 -85 39 -42 95 -102 125 -133 50 -54 56 -58 99 -58 l45 0 0 850 0 850
-167 -2 -168 -3 -3 -467 c-1 -258 -6 -468 -11 -468 -5 0 -14 7 -21 15 -7 8 -9
15 -5 15 4 0 -14 20 -39 45 -25 25 -46 49 -46 52 0 3 -23 31 -51 62 -100 110
-119 133 -119 138 0 4 -21 29 -47 57 -71 76 -123 137 -123 143 0 2 -37 45 -82
94 -46 50 -85 96 -87 102 -2 7 -26 33 -53 58 -26 26 -48 50 -48 54 0 5 -22 32
-50 61 -27 29 -50 58 -50 63 0 7 -23 11 -55 11 l-55 0 0 -850z"/>
<path d="M6125 4724 c-16 -3 -39 -9 -50 -13 -11 -5 -41 -15 -67 -21 -27 -7
-48 -16 -48 -20 0 -4 -16 -11 -35 -14 -19 -4 -35 -11 -35 -16 0 -6 -5 -10 -11
-10 -6 0 -28 -13 -49 -30 -21 -16 -42 -30 -46 -30 -13 0 -134 -125 -134 -138
0 -7 -4 -12 -9 -12 -11 0 -19 -14 -77 -131 -23 -46 -45 -97 -49 -114 -3 -16
-12 -33 -18 -37 -17 -10 -17 -466 0 -476 7 -4 15 -27 19 -50 4 -23 10 -42 15
-42 4 0 11 -16 15 -35 3 -19 18 -52 33 -73 15 -20 33 -52 40 -69 7 -18 18 -33
23 -33 5 0 11 -8 15 -17 8 -25 94 -113 110 -113 6 0 16 -6 20 -12 11 -17 57
-47 118 -78 28 -14 52 -28 53 -32 2 -5 14 -8 26 -8 12 0 31 -7 42 -15 12 -8
24 -12 27 -8 4 3 14 0 23 -8 24 -20 423 -20 447 0 9 7 26 11 37 8 11 -3 20 -2
20 3 0 4 23 10 51 14 l52 7 -7 102 c-4 56 -11 104 -15 107 -4 3 -11 34 -14 69
-4 35 -9 67 -12 69 -3 3 -13 -2 -22 -11 -10 -8 -36 -19 -58 -22 -22 -4 -46
-13 -54 -19 -9 -7 -70 -11 -170 -11 -132 0 -160 3 -181 18 -13 9 -35 17 -47
17 -13 0 -23 3 -23 8 0 4 -13 13 -29 20 -35 16 -151 136 -151 157 0 8 -4 15
-9 15 -5 0 -12 14 -16 30 -4 17 -11 30 -16 30 -5 0 -12 18 -15 40 -4 22 -11
43 -15 46 -12 7 -12 221 0 228 4 3 11 27 14 53 6 47 43 131 75 166 8 9 20 27
26 39 6 13 21 27 32 33 11 5 38 24 59 40 87 66 103 70 280 70 162 0 168 -1
248 -41 42 -21 47 -18 47 26 0 22 4 40 9 40 4 0 6 11 3 25 -2 14 0 31 6 38 5
6 11 55 13 107 l4 94 -44 8 c-24 4 -50 13 -59 20 -11 9 -66 13 -201 14 -102 1
-199 0 -216 -2z"/>
<path d="M8940 3885 l0 -835 170 0 170 0 -1 318 0 317 86 3 86 3 12 -31 c6
-16 15 -30 19 -30 4 0 8 -5 8 -12 0 -18 91 -198 100 -198 4 0 11 -12 15 -27 3
-15 10 -30 13 -33 10 -7 62 -116 62 -129 0 -6 4 -11 8 -11 10 0 68 -111 64
-122 -1 -5 2 -8 7 -8 5 0 13 -9 16 -20 6 -19 15 -20 196 -20 178 0 211 5 177
27 -14 9 -32 39 -73 121 -15 28 -30 52 -35 52 -4 0 -11 12 -15 27 -3 15 -10
30 -13 33 -11 8 -29 40 -62 108 -17 34 -34 62 -39 62 -5 0 -12 14 -16 30 -4
17 -10 30 -13 30 -4 0 -12 10 -18 23 -33 66 -46 87 -54 87 -5 0 -11 14 -15 30
-4 17 -11 30 -16 30 -25 0 -5 33 29 46 75 32 98 45 137 82 44 42 85 96 85 112
0 5 4 10 8 10 10 0 32 59 32 86 0 11 6 26 13 32 16 17 17 259 1 270 -6 4 -14
29 -18 55 -4 27 -13 50 -21 53 -7 3 -16 17 -20 31 -3 15 -22 42 -41 61 -19 19
-34 38 -34 43 0 5 -5 9 -10 9 -6 0 -21 11 -33 24 -13 14 -35 28 -50 31 -15 4
-27 10 -27 14 0 11 -63 31 -98 31 -17 0 -34 5 -37 10 -4 6 -142 10 -381 10
l-374 0 0 -835z m700 495 c0 -5 6 -10 13 -10 22 0 78 -62 84 -92 3 -16 10 -31
14 -34 12 -7 12 -71 0 -78 -4 -3 -11 -21 -14 -40 -6 -40 -25 -62 -79 -94 -34
-21 -46 -22 -207 -20 -94 2 -171 6 -171 11 0 4 0 88 0 187 l0 180 180 0 c113
0 180 -4 180 -10z"/>
<path d="M12040 3885 l0 -835 435 0 435 0 0 165 0 165 -270 0 -270 0 0 170 0
170 220 0 220 0 0 165 0 165 -220 0 -220 0 0 170 0 170 250 0 250 0 0 165 0
165 -415 0 -415 0 0 -835z"/>
<path d="M13220 3885 l0 -835 165 0 165 0 2 318 3 317 79 3 c72 3 80 1 95 -20
33 -47 101 -178 101 -196 0 -7 4 -12 9 -12 5 0 11 -8 15 -17 3 -10 10 -26 16
-35 22 -38 31 -56 77 -148 26 -52 58 -109 70 -126 13 -17 20 -34 16 -37 -3 -4
-2 -7 4 -7 6 0 13 -9 16 -20 5 -19 14 -20 186 -20 100 0 181 2 181 4 0 3 -20
42 -45 88 -25 46 -59 111 -76 146 -17 34 -34 62 -39 62 -5 0 -11 14 -15 30 -4
17 -10 30 -15 30 -4 0 -11 8 -14 18 -3 9 -20 40 -36 67 -17 28 -33 58 -36 68
-4 9 -10 17 -14 17 -5 0 -11 13 -15 30 -4 16 -12 33 -18 37 -20 13 -49 73 -43
89 3 7 14 14 25 14 11 0 23 5 27 11 3 6 21 17 38 24 38 16 136 102 136 119 0
7 14 31 31 54 17 24 29 46 25 49 -3 3 -1 12 4 19 6 6 13 35 17 63 3 28 10 51
14 51 13 0 11 168 -1 172 -6 2 -13 21 -16 43 -3 22 -8 47 -11 55 -4 8 -5 19
-4 25 1 5 -4 14 -11 20 -7 6 -20 22 -28 37 -25 43 -140 158 -166 164 -13 3
-24 10 -24 14 0 5 -13 11 -30 15 -16 4 -30 10 -30 14 0 4 -13 6 -29 3 -16 -2
-32 1 -35 7 -5 8 -122 11 -387 11 l-379 0 0 -835z m685 495 c3 -5 14 -10 23
-10 8 0 33 -18 54 -41 38 -40 38 -41 38 -126 0 -76 -3 -88 -26 -119 -53 -69
-71 -74 -268 -74 l-176 0 0 183 c0 101 3 187 7 190 11 11 341 8 348 -3z"/>
<path d="M5540 1855 l0 -896 412 3 c318 2 412 6 416 16 2 6 14 12 27 12 30 0
103 37 150 75 100 82 148 140 160 193 3 18 11 32 16 32 6 0 7 5 4 10 -4 6 -1
18 7 27 9 12 13 56 13 167 0 142 -1 153 -22 180 -13 16 -23 35 -23 42 0 8 -27
41 -60 74 -60 60 -72 80 -47 80 16 0 57 41 57 57 0 6 4 13 8 15 20 8 53 81 59
128 3 28 10 53 14 56 12 7 12 211 0 218 -5 3 -12 22 -15 41 -11 57 -68 159
-120 213 -49 51 -132 102 -167 102 -10 0 -19 4 -19 9 0 5 -18 12 -40 16 -22 4
-42 11 -46 16 -3 5 -171 9 -395 9 l-389 0 0 -895z m773 498 c20 -16 36 -36 37
-45 0 -9 7 -23 15 -32 34 -33 10 -152 -40 -202 -40 -40 -62 -44 -256 -44
l-189 0 0 175 0 175 198 0 199 0 36 -27z m11 -722 c20 -19 36 -39 36 -44 0 -4
7 -15 15 -23 24 -24 20 -119 -7 -162 -31 -50 -53 -70 -85 -78 -16 -4 -33 -11
-39 -16 -7 -4 -90 -7 -185 -6 l-174 3 -3 183 -2 183 204 -3 205 -3 35 -34z"/>
<path d="M10970 2741 c0 -5 -30 -12 -67 -16 -36 -4 -74 -10 -82 -15 -62 -30
-111 -50 -125 -50 -9 0 -16 -4 -16 -10 0 -5 -15 -17 -32 -25 -75 -36 -97 -52
-172 -129 -97 -99 -106 -110 -106 -124 0 -7 -4 -12 -9 -12 -5 0 -16 -17 -25
-37 -9 -21 -20 -45 -25 -53 -20 -31 -41 -83 -47 -116 -3 -19 -10 -34 -14 -34
-4 0 -11 -25 -15 -55 -3 -30 -11 -57 -16 -60 -13 -9 -12 -332 2 -337 5 -2 13
-22 16 -46 3 -23 10 -42 14 -42 5 0 9 -10 9 -22 0 -13 7 -36 15 -52 9 -16 13
-31 10 -34 -2 -3 4 -17 15 -32 11 -15 17 -30 13 -34 -3 -3 -1 -6 5 -6 7 0 12
-5 12 -11 0 -6 11 -25 25 -43 14 -18 25 -37 25 -43 0 -5 14 -22 30 -36 17 -15
30 -31 30 -36 0 -5 33 -37 73 -70 97 -82 94 -80 100 -75 2 2 10 -2 17 -11 7
-8 19 -15 26 -15 8 0 14 -4 14 -10 0 -5 5 -10 10 -10 6 0 29 -9 53 -19 23 -11
58 -23 77 -26 19 -4 38 -13 42 -19 11 -17 473 -15 489 2 7 6 27 12 45 12 17 0
37 7 44 15 7 9 19 14 27 11 7 -3 13 -1 13 4 0 6 9 10 21 10 11 0 34 8 50 17
l29 17 0 393 0 393 -180 0 -180 0 -2 -272 -3 -273 -108 -3 c-84 -2 -112 1
-130 13 -12 8 -31 15 -43 15 -26 0 -85 29 -97 48 -4 6 -14 12 -20 12 -16 0
-117 102 -117 117 0 7 -6 16 -13 20 -17 11 -68 113 -62 123 3 5 -1 10 -7 12
-10 4 -13 49 -13 184 0 161 2 183 20 214 11 19 24 38 28 41 5 3 8 8 7 10 -10
23 137 199 167 199 7 0 13 5 13 10 0 6 6 10 13 10 7 0 30 10 52 21 21 12 65
24 97 27 32 2 61 9 64 13 7 13 184 11 184 -1 0 -5 20 -10 45 -10 52 0 141 -17
172 -32 13 -6 25 -9 28 -6 3 2 10 63 16 134 6 71 15 138 21 150 5 12 8 32 6
45 -2 19 -10 25 -35 27 -18 2 -33 7 -33 11 0 5 -23 11 -51 14 -28 4 -56 10
-63 15 -14 12 -376 15 -376 3z"/>
<path d="M11970 1855 l0 -895 455 0 455 0 0 170 0 170 -282 2 -283 3 0 180 0
180 243 3 242 2 0 180 0 180 -235 0 -235 0 0 175 0 175 263 2 262 3 0 180 0
180 -442 3 -443 3 0 -896z"/>
<path d="M7080 2093 c0 -399 4 -655 11 -683 15 -65 75 -183 120 -234 22 -24
39 -49 39 -55 0 -6 11 -16 25 -21 14 -5 25 -13 25 -17 0 -5 17 -17 38 -28 20
-11 53 -30 72 -42 19 -13 46 -23 60 -23 14 0 31 -5 37 -11 5 -5 36 -13 67 -16
31 -3 56 -10 56 -14 0 -5 50 -9 110 -9 67 0 110 4 110 10 0 6 8 10 18 10 9 0
30 7 46 15 15 8 36 15 45 15 23 1 120 51 165 85 61 48 136 132 136 154 0 6 4
11 9 11 5 0 12 12 16 27 3 15 10 30 13 33 4 3 16 21 27 40 19 34 20 56 23 713
l3 677 -165 0 -166 0 0 -605 c0 -358 -4 -605 -9 -605 -5 0 -12 -19 -16 -42 -5
-28 -17 -49 -36 -66 -16 -13 -29 -29 -29 -36 0 -11 -12 -20 -66 -45 -16 -7
-37 -17 -46 -22 -10 -5 -55 -9 -101 -9 -82 0 -114 9 -181 53 -53 34 -96 98
-96 142 0 14 -4 25 -10 25 -7 0 -10 208 -10 605 l0 605 -170 0 -170 0 0 -637z"/>
<path d="M8760 1845 l0 -885 173 0 172 0 0 338 0 337 98 3 c84 2 97 1 97 -14
0 -9 8 -28 18 -42 10 -15 27 -45 37 -67 11 -22 23 -42 27 -45 3 -3 10 -18 13
-33 4 -15 10 -27 14 -27 5 0 14 -18 21 -40 7 -22 17 -40 21 -40 4 0 10 -14 14
-30 4 -17 11 -30 16 -30 9 0 59 -99 59 -118 0 -6 3 -12 8 -14 4 -1 18 -24 32
-50 13 -27 28 -48 32 -48 5 0 8 -6 8 -13 0 -7 6 -25 13 -40 l12 -27 197 0 198
0 -13 28 c-6 15 -15 29 -19 32 -7 6 -60 101 -103 188 -15 28 -30 52 -35 52 -5
0 -11 14 -15 30 -4 17 -10 30 -15 30 -5 0 -11 13 -15 29 -3 16 -13 32 -21 35
-8 3 -14 12 -14 21 0 8 -4 15 -8 15 -5 0 -14 17 -20 39 -7 21 -19 44 -27 51
-8 7 -15 19 -15 26 0 8 -4 14 -10 14 -5 0 -10 6 -10 14 0 7 -9 25 -21 39 -11
15 -23 42 -26 62 -4 28 -2 36 13 41 22 7 77 35 84 43 5 6 17 14 72 49 16 9 28
22 28 28 0 6 9 19 20 29 11 10 20 24 20 30 0 7 6 15 14 18 8 3 17 19 21 36 4
17 11 31 16 31 6 0 9 6 8 13 -1 6 2 21 7 32 5 11 9 97 9 190 0 141 -3 175 -16
196 -9 13 -20 39 -24 57 -4 18 -13 36 -21 39 -8 3 -14 11 -14 18 0 6 -9 20
-20 30 -11 10 -20 23 -20 29 -1 15 -85 76 -145 104 -27 14 -59 30 -70 36 -14
7 -154 12 -447 14 l-428 3 0 -886z m793 493 c20 -21 39 -49 43 -63 3 -14 10
-25 15 -25 5 0 9 -29 9 -65 0 -36 -4 -65 -9 -65 -5 0 -12 -12 -15 -26 -8 -29
-63 -81 -112 -106 -43 -21 -347 -27 -370 -7 -12 10 -14 48 -14 206 l2 194 207
-3 208 -3 36 -37z"/>
<path d="M13240 1846 l0 -886 170 0 170 0 0 340 0 340 89 0 89 0 17 -37 c10
-20 31 -59 46 -85 16 -27 29 -56 29 -64 0 -8 6 -17 14 -20 8 -3 18 -19 21 -35
4 -16 10 -29 14 -29 4 0 14 -18 21 -40 7 -22 19 -45 27 -51 7 -6 13 -17 13
-24 0 -8 3 -15 8 -17 4 -1 25 -39 47 -83 22 -44 47 -91 57 -105 9 -14 18 -39
20 -55 l3 -30 208 -3 c136 -1 207 1 207 8 0 5 -4 10 -8 10 -4 0 -14 16 -21 35
-7 19 -16 35 -21 35 -5 0 -11 14 -15 30 -4 17 -11 30 -16 30 -5 0 -9 7 -9 15
0 9 -6 18 -14 21 -8 3 -18 19 -21 35 -4 16 -11 29 -16 29 -5 0 -9 5 -9 11 0 6
-8 23 -18 37 -10 15 -25 43 -32 62 -8 19 -17 37 -21 40 -8 6 -66 106 -81 143
-7 15 -16 27 -19 27 -4 0 -10 14 -14 31 -4 17 -13 33 -20 36 -8 2 -17 18 -20
34 -4 16 -11 29 -16 29 -5 0 -9 8 -9 18 0 13 19 27 65 47 36 15 65 32 65 36 0
5 5 9 11 9 14 0 89 74 89 88 0 5 7 15 16 23 9 7 25 33 36 58 11 25 27 61 36
80 14 28 17 63 16 172 0 80 -5 143 -11 151 -5 7 -13 27 -17 43 -7 28 -38 96
-70 153 -17 30 -77 92 -89 92 -4 0 -25 13 -45 30 -21 16 -53 33 -72 36 -19 4
-38 12 -42 18 -5 8 -139 12 -433 14 l-425 3 0 -885z m780 489 c22 -21 40 -45
40 -52 0 -7 5 -13 10 -13 13 0 13 -147 0 -155 -5 -3 -7 -12 -3 -20 3 -8 0 -15
-6 -15 -6 0 -11 -6 -11 -14 0 -8 -16 -28 -35 -45 l-36 -31 -199 0 -200 0 0
196 0 196 200 -4 199 -3 41 -40z"/>
<path d="M2606 2701 c-3 -5 -31 -12 -61 -16 -32 -4 -58 -12 -61 -20 -3 -7 -26
-16 -51 -20 -25 -3 -62 -16 -82 -28 -33 -20 -48 -22 -196 -21 -108 1 -160 5
-163 13 -2 6 -23 11 -47 11 -24 0 -45 5 -47 11 -6 18 -360 19 -365 2 -3 -7
-13 -13 -22 -13 -10 0 -31 -6 -47 -14 -16 -7 -44 -20 -61 -27 -18 -8 -33 -17
-33 -21 0 -5 -9 -8 -20 -8 -11 0 -20 -4 -20 -10 0 -5 -9 -10 -20 -10 -19 0
-59 -18 -70 -31 -3 -4 -15 -9 -27 -13 -13 -4 -23 -12 -23 -17 0 -5 -11 -9 -24
-9 -14 0 -28 -4 -31 -10 -3 -5 -22 -10 -41 -10 -19 0 -34 -4 -34 -10 0 -6 -40
-10 -100 -10 -60 0 -100 4 -100 10 0 6 -45 10 -115 10 -70 0 -115 -4 -115 -10
0 -5 -15 -10 -34 -10 -19 0 -38 -5 -41 -10 -4 -6 -10 -8 -15 -5 -5 3 -11 1
-15 -5 -3 -5 -17 -10 -31 -10 -13 0 -24 -4 -24 -10 0 -5 -9 -10 -20 -10 -11 0
-20 -4 -20 -10 0 -5 -5 -10 -10 -10 -6 0 -23 -11 -38 -25 -15 -14 -31 -25 -35
-25 -5 0 -22 -13 -37 -30 -15 -16 -35 -30 -43 -30 -8 0 -23 -11 -33 -25 -10
-14 -26 -25 -34 -25 -8 0 -24 -11 -34 -25 -10 -14 -25 -25 -33 -25 -17 0 -112
-100 -113 -117 0 -7 -4 -13 -10 -13 -6 0 -10 -27 -10 -60 0 -33 4 -60 10 -60
6 0 10 -9 10 -21 0 -12 15 -36 32 -55 18 -18 39 -40 46 -49 10 -11 34 -15 101
-15 82 0 89 2 107 25 10 14 26 25 34 25 9 0 22 9 30 20 8 11 20 20 28 20 7 0
27 16 45 35 17 19 38 35 44 35 7 0 23 11 35 25 12 14 28 25 35 25 7 0 13 5 13
10 0 6 9 10 20 10 11 0 20 4 20 9 0 6 20 13 45 17 25 3 45 10 45 15 0 5 45 9
100 9 60 0 100 -4 100 -10 0 -6 46 -10 119 -10 69 0 122 4 126 10 3 6 17 10
31 10 13 0 24 5 24 10 0 6 8 10 18 10 22 0 72 22 72 33 0 4 9 7 20 7 11 0 20
4 20 10 0 5 16 12 35 16 19 3 35 9 35 13 0 4 16 13 35 21 19 8 35 17 35 21 0
4 16 10 35 13 19 4 35 11 35 16 0 6 11 10 24 10 14 0 28 5 31 10 4 6 65 10
151 10 89 0 144 -4 144 -10 0 -5 25 -10 55 -10 33 0 55 -4 55 -11 0 -7 18 -10
50 -7 28 1 50 -1 50 -6 0 -13 250 0 263 13 6 6 26 11 44 11 18 0 33 5 33 10 0
6 11 10 25 10 14 0 25 5 25 10 0 6 9 10 20 10 11 0 20 5 20 10 0 6 13 10 28
10 16 0 44 7 61 16 27 13 57 16 159 12 85 -3 127 -8 130 -16 2 -7 11 -12 21
-12 22 0 71 -23 71 -32 0 -5 14 -8 30 -8 17 0 30 -4 30 -10 0 -5 15 -10 34
-10 19 0 36 -6 39 -12 5 -18 362 -17 379 0 7 7 31 12 55 12 24 0 43 5 43 10 0
6 52 10 135 10 83 0 135 -4 135 -10 0 -5 15 -10 34 -10 19 0 37 -4 41 -9 3 -5
18 -12 34 -16 16 -3 37 -15 47 -26 9 -10 23 -19 31 -19 7 0 13 -4 13 -10 0 -5
11 -10 24 -10 14 0 31 -7 40 -15 8 -8 22 -15 30 -15 9 0 16 -4 16 -10 0 -5 11
-10 25 -10 14 0 25 -4 25 -10 0 -5 14 -10 30 -10 17 0 30 -4 30 -10 0 -5 16
-10 35 -10 19 0 35 -4 35 -10 0 -6 43 -10 109 -10 63 0 112 4 116 10 8 14 202
13 207 -1 2 -5 22 -13 46 -16 23 -3 42 -10 42 -14 0 -5 7 -9 15 -9 8 0 15 -4
15 -9 0 -5 10 -13 23 -16 12 -4 34 -20 49 -36 15 -16 32 -29 38 -29 6 0 22
-11 36 -25 14 -14 30 -25 35 -25 6 0 24 -13 39 -30 15 -16 32 -30 38 -30 5 0
15 -7 22 -15 9 -11 34 -15 97 -15 l85 0 42 43 41 42 0 105 0 106 -37 37 c-21
20 -40 37 -43 37 -7 0 -24 14 -60 48 -13 12 -27 22 -30 22 -3 0 -17 11 -31 25
-14 14 -31 25 -39 25 -8 0 -20 9 -27 20 -7 11 -19 20 -26 20 -8 0 -23 11 -34
25 -11 14 -28 25 -39 25 -10 0 -19 5 -19 10 0 6 -6 10 -13 10 -8 0 -22 9 -32
20 -10 11 -29 20 -42 20 -12 0 -23 5 -23 11 0 5 -4 8 -9 4 -5 -3 -12 -1 -16 5
-3 5 -22 10 -41 10 -19 0 -34 5 -34 10 0 6 -45 10 -114 10 -66 0 -117 -4 -121
-10 -8 -13 -195 -13 -195 0 0 6 -18 10 -40 10 -22 0 -40 5 -40 10 0 6 -11 10
-25 10 -14 0 -25 4 -25 9 0 5 -16 12 -35 15 -19 4 -35 11 -35 16 0 6 -9 10
-20 10 -11 0 -20 5 -20 10 0 6 -7 10 -15 10 -8 0 -15 5 -15 10 0 6 -9 10 -20
10 -11 0 -20 5 -20 10 0 6 -9 10 -20 10 -11 0 -20 4 -20 10 0 5 -16 12 -35 16
-19 3 -35 10 -35 15 0 5 -15 9 -34 9 -19 0 -36 6 -39 13 -5 16 -359 15 -365
-2 -2 -6 -27 -11 -57 -11 -33 0 -55 -5 -57 -12 -6 -18 -300 -18 -305 0 -3 6
-13 12 -23 12 -10 0 -31 7 -46 15 -16 8 -43 15 -60 15 -19 0 -34 6 -38 15 -3
8 -23 18 -46 21 -22 4 -40 10 -40 15 0 12 -297 12 -304 0z"/>
<path d="M2430 1820 c0 -6 -55 -10 -145 -10 -80 0 -145 -4 -145 -8 0 -5 -87
-12 -192 -16 -106 -4 -197 -11 -202 -17 -6 -5 -29 -9 -53 -9 -24 0 -43 -4 -43
-10 0 -6 -27 -10 -60 -10 -33 0 -60 -4 -60 -10 0 -5 -25 -10 -55 -10 -30 0
-55 -4 -55 -9 0 -5 -38 -12 -85 -16 -47 -4 -87 -11 -91 -16 -3 -5 -21 -9 -40
-9 -19 0 -34 -4 -34 -10 0 -5 -16 -10 -35 -10 -19 0 -35 -4 -35 -9 0 -4 -27
-11 -60 -15 -33 -4 -62 -11 -65 -16 -4 -6 -22 -10 -41 -10 -19 0 -34 -4 -34
-10 0 -5 -11 -10 -25 -10 -14 0 -25 -4 -25 -10 0 -5 -13 -10 -30 -10 -16 0
-30 -4 -30 -9 0 -5 -22 -12 -50 -16 -27 -4 -52 -11 -56 -16 -3 -5 -16 -9 -30
-9 -13 0 -24 -4 -24 -10 0 -5 -7 -10 -15 -10 -8 0 -15 -4 -15 -10 0 -5 -13
-10 -30 -10 -16 0 -30 -3 -30 -8 0 -9 -45 -28 -87 -37 -18 -4 -33 -11 -33 -16
0 -5 -9 -9 -20 -9 -11 0 -20 -4 -20 -10 0 -5 -7 -10 -15 -10 -8 0 -32 -18 -55
-40 -39 -38 -40 -41 -40 -109 0 -38 4 -73 10 -76 5 -3 10 -37 10 -76 0 -39 4
-69 10 -69 6 0 10 -25 10 -55 0 -30 4 -55 9 -55 5 0 12 -56 16 -125 4 -69 11
-125 16 -125 5 0 9 -25 9 -55 0 -30 5 -55 10 -55 6 0 10 -20 10 -45 0 -25 5
-45 10 -45 6 0 10 -6 10 -12 1 -20 36 -58 54 -58 9 0 16 -4 16 -9 0 -6 20 -13
45 -17 25 -3 45 -10 45 -15 0 -5 16 -9 35 -9 19 0 35 -4 35 -10 0 -5 9 -10 20
-10 11 0 20 -4 20 -10 0 -5 16 -10 35 -10 19 0 35 -4 35 -10 0 -5 15 -10 34
-10 19 0 36 -4 38 -10 2 -5 42 -13 91 -16 48 -4 87 -11 87 -15 0 -5 11 -9 24
-9 14 0 27 -4 30 -9 3 -4 55 -12 116 -16 76 -4 112 -11 118 -20 5 -9 40 -16
110 -21 56 -4 102 -11 102 -15 0 -5 36 -9 79 -9 44 0 83 -4 86 -10 3 -5 23
-10 44 -10 20 0 42 -5 47 -10 7 -7 117 -13 280 -17 162 -4 272 -10 276 -16 9
-14 872 -14 890 0 8 6 110 13 248 17 130 4 236 11 238 17 2 5 44 9 93 9 53 0
89 4 89 10 0 6 37 10 90 10 50 0 90 4 90 9 0 5 43 12 95 16 70 5 97 11 104 22
7 13 19 15 55 10 28 -4 46 -3 46 3 0 6 20 10 44 10 25 0 48 5 51 10 3 6 19 10
35 10 16 0 31 4 34 9 3 4 43 11 88 15 46 4 87 11 92 16 6 6 20 10 33 10 13 0
23 5 23 10 0 6 11 10 25 10 14 0 25 5 25 10 0 6 18 10 40 10 22 0 40 5 40 10
0 6 16 10 35 10 19 0 35 4 35 9 0 5 20 12 45 15 25 4 45 11 45 17 0 5 5 9 11
9 13 0 39 25 39 38 0 5 9 17 20 27 15 13 20 31 20 66 0 26 4 50 9 53 4 3 11
63 15 133 4 70 11 129 17 131 5 2 9 19 9 38 0 19 5 34 10 34 6 0 10 25 10 55
0 30 3 55 8 55 4 0 5 30 4 66 -3 46 0 69 9 74 8 6 12 32 10 82 -2 70 -4 75
-39 110 -20 20 -43 37 -49 38 -7 0 -13 5 -13 10 0 6 -9 10 -20 10 -11 0 -20 5
-20 10 0 6 -11 10 -24 10 -13 0 -29 7 -36 15 -7 8 -23 15 -36 15 -12 0 -26 5
-29 10 -3 6 -17 10 -31 10 -13 0 -24 5 -24 10 0 6 -7 10 -15 10 -8 0 -15 5
-15 10 0 6 -13 10 -30 10 -16 0 -30 4 -30 9 0 5 -22 12 -50 16 -27 4 -52 11
-56 16 -3 5 -16 9 -30 9 -13 0 -24 5 -24 10 0 6 -13 10 -28 10 -29 0 -82 20
-82 31 0 4 -31 10 -70 14 -38 4 -70 11 -70 16 0 5 -16 9 -35 9 -19 0 -35 5
-35 10 0 6 -18 10 -40 10 -22 0 -40 4 -40 9 0 4 -37 11 -82 15 -46 4 -84 11
-86 16 -2 6 -33 10 -68 10 -36 0 -64 4 -64 10 0 6 -20 10 -45 10 -25 0 -45 5
-45 10 0 6 -25 10 -55 10 -30 0 -55 4 -55 8 0 5 -75 12 -167 15 -100 4 -169
11 -171 17 -2 6 -66 10 -173 10 -106 0 -169 4 -169 10 0 6 -113 10 -320 10
-207 0 -320 -4 -320 -10z m968 -347 c3 -10 35 -13 118 -13 69 0 114 -4 114
-10 0 -5 20 -10 45 -10 25 0 45 -4 45 -10 0 -5 25 -10 55 -10 30 0 55 -4 55
-8 0 -5 46 -12 102 -15 57 -4 104 -11 106 -17 2 -5 28 -10 58 -10 30 0 54 -4
54 -10 0 -5 20 -10 45 -10 25 0 45 -4 45 -10 0 -5 15 -10 34 -10 19 0 37 -4
40 -9 3 -4 33 -11 66 -15 33 -4 60 -11 60 -16 0 -6 11 -10 25 -10 14 0 25 -4
25 -10 0 -5 14 -10 30 -10 17 0 30 -4 30 -9 0 -4 27 -11 60 -15 33 -4 60 -11
60 -16 0 -6 8 -10 18 -10 22 0 72 -22 72 -32 0 -5 14 -8 30 -8 17 0 30 -4 30
-9 0 -5 11 -12 25 -15 24 -6 25 -10 25 -76 0 -40 -4 -70 -10 -70 -5 0 -10 -18
-10 -39 0 -22 -4 -43 -10 -46 -5 -3 -10 -39 -11 -78 -2 -111 -13 -192 -26
-192 -6 0 -15 -3 -19 -7 -4 -5 -18 -8 -31 -8 -12 0 -23 -4 -23 -10 0 -5 -20
-10 -44 -10 -25 0 -48 -4 -51 -10 -3 -5 -22 -10 -41 -10 -19 0 -34 -4 -34 -10
0 -5 -27 -12 -60 -16 -33 -4 -60 -11 -60 -15 0 -5 -25 -9 -55 -9 -30 0 -55 -4
-55 -10 0 -5 -20 -10 -45 -10 -25 0 -45 -4 -45 -10 0 -5 -20 -10 -45 -10 -25
0 -45 -4 -45 -8 0 -5 -51 -12 -112 -16 -62 -4 -114 -11 -116 -16 -2 -6 -37
-10 -78 -10 -43 0 -74 -4 -74 -10 0 -6 -42 -10 -105 -10 -63 0 -105 -4 -105
-10 0 -6 -37 -10 -90 -10 -53 0 -90 -4 -90 -10 0 -7 -217 -10 -630 -10 -413 0
-630 3 -630 10 0 6 -40 10 -100 10 -60 0 -100 4 -100 10 0 6 -43 10 -110 10
-67 0 -110 4 -110 10 0 6 -26 10 -58 10 -32 0 -62 4 -68 10 -5 5 -58 13 -117
17 -59 3 -110 10 -113 15 -3 4 -21 8 -40 8 -19 0 -34 5 -34 10 0 6 -22 10 -49
10 -28 0 -53 5 -56 10 -3 6 -28 10 -55 10 -27 0 -51 4 -54 9 -4 5 -40 12 -81
16 -41 4 -75 11 -75 16 0 5 -13 9 -30 9 -16 0 -30 5 -30 10 0 6 -11 10 -24 10
-14 0 -28 5 -31 10 -3 6 -19 10 -34 10 -15 0 -31 3 -35 8 -4 4 -13 7 -19 7 -7
0 -13 20 -15 50 -2 27 -7 54 -12 60 -4 5 -11 56 -15 112 -6 75 -11 103 -22
107 -10 4 -14 19 -12 51 2 24 0 47 -4 51 -4 4 -7 20 -7 35 0 27 15 39 51 39
10 0 19 5 19 10 0 6 9 10 20 10 11 0 20 5 20 10 0 6 11 10 25 10 14 0 25 5 25
10 0 6 11 10 24 10 14 0 27 4 30 9 4 5 29 12 56 16 28 4 50 11 50 16 0 5 11 9
24 9 14 0 28 5 31 10 3 5 22 10 41 10 19 0 34 4 34 9 0 5 32 12 70 16 39 4 70
11 70 16 0 5 16 9 35 9 19 0 35 5 35 10 0 6 14 10 30 10 17 0 30 5 30 10 0 6
20 10 45 10 25 0 45 4 45 9 0 5 47 12 105 16 58 4 105 11 105 16 0 5 29 9 65
9 37 0 65 4 65 10 0 6 30 10 70 10 40 0 70 4 70 10 0 6 40 10 100 10 57 0 100
4 100 10 0 15 92 17 709 16 458 -1 585 -4 589 -13z"/>
<path d="M5611 799 c-105 -14 -136 -131 -58 -217 l21 -22 -36 -30 c-21 -17
-44 -50 -53 -75 -17 -43 -17 -45 6 -92 13 -26 35 -54 49 -60 41 -21 169 -16
215 7 39 20 39 20 60 0 16 -15 35 -20 80 -20 l59 0 -48 49 -48 49 25 54 c14
29 29 68 32 86 l7 33 -43 -3 c-41 -3 -42 -4 -54 -51 -7 -26 -15 -50 -18 -53
-5 -5 -88 78 -94 95 -2 3 10 15 26 25 41 28 61 67 61 119 0 84 -70 123 -189
106z m90 -80 c11 -11 18 -27 15 -36 -3 -8 -6 -19 -6 -23 0 -5 -12 -21 -27 -34
l-27 -25 -24 22 c-13 12 -28 30 -33 40 -30 55 55 103 102 56z m-14 -271 c29
-29 53 -56 53 -61 0 -13 -66 -37 -100 -37 -36 0 -80 38 -80 69 0 22 46 81 63
81 6 0 35 -23 64 -52z"/>
<path d="M7016 799 c-117 -18 -186 -117 -186 -263 1 -109 42 -186 122 -227 45
-23 181 -26 231 -5 105 44 162 196 123 330 -36 124 -147 187 -290 165z m150
-100 c42 -39 57 -78 58 -150 0 -125 -54 -191 -156 -191 -91 0 -141 56 -146
166 -5 91 19 155 70 186 47 30 137 24 174 -11z"/>
<path d="M7507 792 l-87 -3 2 -247 3 -247 43 -3 42 -3 0 100 0 101 34 0 c32 0
39 -6 101 -96 37 -52 73 -98 80 -100 7 -3 31 -4 54 -2 l42 3 -70 95 c-39 52
-70 98 -71 102 0 4 17 16 38 28 50 28 72 67 72 125 0 115 -74 154 -283 147z
m156 -83 c30 -16 37 -28 37 -66 0 -56 -47 -83 -146 -83 l-44 0 0 80 0 80 66 0
c36 0 75 -5 87 -11z"/>
<path d="M6200 540 l0 -250 45 0 45 0 2 198 c3 183 4 194 16 152 8 -25 27 -79
42 -120 16 -41 41 -110 56 -152 24 -72 29 -78 54 -78 17 0 31 7 35 18 26 64
125 344 125 351 0 6 3 12 8 14 4 3 5 -82 4 -189 l-4 -194 46 0 46 0 0 250 0
250 -64 0 -63 0 -41 -112 c-22 -62 -51 -143 -64 -180 -22 -66 -37 -86 -39 -50
0 9 -26 89 -58 177 l-59 160 -66 3 -66 3 0 -251z"/>
<path d="M7910 540 l0 -250 175 0 175 0 0 35 0 34 -127 3 -128 3 -3 72 -3 72
103 3 103 3 3 32 3 32 -103 3 -103 3 -3 68 -3 67 121 0 120 0 0 35 0 35 -165
0 -165 0 0 -250z"/>
</g>
</svg>
